#!OML:ASF F:\VICON\USERDATA\INSTALL\SteveWalk\SteveWalk.ASF
:FULLY-SPECIFIED
:DEGREES
196
root 0.208724 16.3743 -2.13521 16.917 -2.98273 3.87256
lowerback -14.085 -0.521316 -5.27674
upperback -5.80489 0.0462645 -1.88478
thorax 1.75939 0.0691842 1.01167
lowerneck -6.92492 -0.625717 0.148177
upperneck 9.81198 -1.36361 4.63337
head 4.5447 -0.429872 1.46564
rclavicle -5.00068e-015 -7.15625e-015
rhumerus -41.5819 -13.4666 -80.8619
rradius 24.5458
rwrist -5.36347
rhand -13.3326 -35.9303
rfingers 7.12502
rthumb 12.7725 -65.5196
lclavicle -5.00068e-015 -7.15625e-015
lhumerus -36.8495 23.8351 69.7662
lradius 17.1881
lwrist -25.0152
lhand -13.8364 -14.4265
lfingers 7.12502
lthumb 12.2868 15.1926
rfemur -41.1752 -6.19293 18.0657
rtibia 73.4782
rfoot -9.77042 2.06156
rtoes -8.5795
lfemur -30.4212 -0.773239 -26.7276
ltibia 36.5529
lfoot -20.6231 -1.36319
ltoes -4.97508
197
root 0.205128 16.3729 -1.93347 16.9509 -2.79894 3.68522
lowerback -14.0927 -0.609851 -5.09296
upperback -5.69461 -0.0940318 -1.70524
thorax 1.88876 -0.00535161 1.07469
lowerneck -7.25288 -0.570593 0.076698
upperneck 10.4013 -1.31819 4.72853
head 4.33452 -0.379984 1.36154
rclavicle 6.55368e-015 1.31198e-014
rhumerus -42.3524 -16.6285 -78.1074
rradius 21.8282
rwrist -1.19234
rhand -12.2977 -35.4769
rfingers 7.12502
rthumb 13.7701 -65.0012
lclavicle 6.55368e-015 1.31198e-014
lhumerus -34.4828 21.84 71.9545
lradius 17.9849
lwrist -22.8572
lhand -14.0573 -14.4328
lfingers 7.12502
lthumb 12.0738 15.1989
rfemur -42.5377 -6.11599 18.6239
rtibia 72.2609
rfoot -10.7167 1.59895
rtoes -10.042
lfemur -29.657 -0.16046 -26.6213
ltibia 36.4844
lfoot -21.4338 -2.14268
ltoes -3.29778
198
root 0.204831 16.3682 -1.73236 17.1185 -2.63573 3.45516
lowerback -14.1326 -0.647469 -4.82339
upperback -5.73958 -0.183787 -1.51542
thorax 1.86937 -0.0502908 1.10785
lowerneck -7.11423 -0.597568 -0.0749723
upperneck 9.93699 -1.30118 4.56636
head 4.62884 -0.406978 1.48938
rclavicle -1.6555e-015 -7.35503e-015
rhumerus -43.8308 -19.6105 -74.9798
rradius 19.4989
rwrist 2.5192
rhand -12.4247 -34.5163
rfingers 7.12502
rthumb 13.6477 -64.0489
lclavicle -1.6555e-015 -7.35503e-015
lhumerus -32.527 19.3174 74.0524
lradius 19.0556
lwrist -20.3979
lhand -14.8739 -14.8928
lfingers 7.12502
lthumb 11.2864 14.7836
rfemur -44.0391 -5.99987 19.1979
rtibia 70.8487
rfoot -11.3306 1.14937
rtoes -10.5321
lfemur -29.0162 0.478627 -26.4969
ltibia 36.386
lfoot -22.1988 -2.60643
ltoes -4.587
199
root 0.205573 16.3693 -1.52624 17.2561 -2.15743 3.37084
lowerback -14.1398 -0.817709 -4.62304
upperback -5.85455 -0.442429 -1.3698
thorax 1.76697 -0.176415 1.10779
lowerneck -6.722 -0.584058 -0.123635
upperneck 9.85122 -1.25876 4.47631
head 4.51512 -0.398576 1.46695
rclavicle 4.02539e-015 1.72943e-014
rhumerus -45.8333 -23.053 -71.0031
rradius 17.2624
rwrist 7.29156
rhand -12.6455 -34.2643
rfingers 7.12502
rthumb 13.4349 -63.8111
lclavicle 4.02539e-015 1.72943e-014
lhumerus -30.8861 16.6123 75.8443
lradius 20.2712
lwrist -17.3207
lhand -15.4818 -15.1458
lfingers 7.12502
lthumb 10.7001 14.5618
rfemur -45.2843 -6.28756 19.7185
rtibia 69.1659
rfoot -12.1316 0.376129
rtoes -12.6001
lfemur -28.2901 1.04487 -26.4803
ltibia 36.2586
lfoot -22.7943 -3.40862
ltoes -5.2059
